<svg xmlns="http://www.w3.org/2000/svg" width="32" height="32" viewBox="0 0 32 32">
  <!-- 班级宠物园 Logo - 书本与爪印组合 -->
  <!-- 书本底座 -->
  <path d="M4 6C4 4.89543 4.89543 4 6 4H14C15.1046 4 16 4.89543 16 6V26C16 27.1046 15.1046 28 14 28H6C4.89543 28 4 27.1046 4 26V6Z" fill="#f472b6" opacity="0.9"/>
  <path d="M16 6C16 4.89543 16.8954 4 18 4H26C27.1046 4 28 4.89543 28 6V26C28 27.1046 27.1046 28 26 28H18C16.8954 28 16 27.1046 16 26V6Z" fill="#ec4899"/>
  <!-- 书脊 -->
  <path d="M15 4H17V28H15V4Z" fill="#be185d"/>
  <!-- 爪印 - 中心垫 -->
  <ellipse cx="16" cy="17" rx="3.5" ry="3" fill="#fef3c7"/>
  <!-- 爪印 - 趾头 -->
  <circle cx="12" cy="12" r="2" fill="#fef3c7"/>
  <circle cx="16" cy="10" r="2" fill="#fef3c7"/>
  <circle cx="20" cy="12" r="2" fill="#fef3c7"/>
</svg>